<?xml version="1.0" encoding="utf-8"?><svg xmlns="http://www.w3.org/2000/svg" xmlns:xlink="http://www.w3.org/1999/xlink"><symbol viewBox="0 0 50 50" id="arrow-right" xmlns="http://www.w3.org/2000/svg"><path clip-rule="evenodd" d="M32.425 24.995L13.145 5.553a2.635 2.635 0 010-3.704 2.582 2.582 0 013.672 0l21.11 21.286c.553.558.805 1.305.754 2.035a2.619 2.619 0 01-.755 1.686l-21.114 21.29a2.582 2.582 0 01-3.673 0 2.634 2.634 0 010-3.704l19.286-19.447z"/></symbol><symbol viewBox="0 0 14 10" id="arrow-top" xmlns="http://www.w3.org/2000/svg"><path fill-rule="evenodd" clip-rule="evenodd" d="M9 0H6l4 4H0v2h10l-4 4h3l5-5z"/></symbol><symbol viewBox="0 0 300 300" id="banquet-furniture" xmlns="http://www.w3.org/2000/svg"><path d="M84.2 238.4h-3.1c-7.2-1-12.3-4.1-17.5-10.3-12.3-16.4-14.4-50.3-7.2-104.8v-2.1c0-2.1 1-3.1 3.1-4.1 1-1 3.1-2.1 5.1-1l64.7 9.2c4.1 1 6.2 4.1 6.2 7.2-10.2 69.9-27.6 105.9-51.3 105.9zM69.9 130.5c-7.2 57.5-2.1 80.1 5.1 89.4 2.1 3.1 5.1 5.1 8.2 5.1h1c11.3 0 26.7-22.6 37-87.3l-51.3-7.2z"/><path d="M80.296 290.385l-13.27-1.858 7.698-54.962 13.27 1.859z"/><path d="M96.6 300s-1.1 0 0 0l-47.3-6.2c-4.1-1-6.2-4.1-6.2-7.2 1-4.1 4.1-6.2 7.2-6.2l46.2 6.2c4.1 1 6.2 4.1 6.2 7.2 0 3.1-3 6.2-6.1 6.2zm24.6-136.6H65.8c-4.1 0-7.2-3.1-7.2-7.2s3.1-7.2 7.2-7.2h56.5c4.1 0 7.2 3.1 7.2 7.2-1.1 4.1-4.2 7.2-8.3 7.2zm90.4 52.4c-22.6 0-43.2-30.8-62.7-94.5v-2.1c-1-3.1 1-7.2 4.1-8.2l61.6-18.5c2.1-1 3.1 0 5.1 0 2.1 1 3.1 2.1 3.1 4.1 21.6 70.9 20.5 111-4.1 118.2-1.9 1-4 1-7.1 1zm-48.2-93.5c22.6 71.9 41.1 80.1 48.3 80.1 1 0 2.1 0 3.1-1 11.3-4.1 16.4-30.8-2.1-95.5l-49.3 16.4z"/><path d="M228.162 266.307l-16.4-53.02 12.8-3.96 16.4 53.02z"/><path d="M211.6 278.4c-3.1 0-5.1-2.1-6.2-5.1-1-3.1 1-7.2 4.1-8.2l45.2-14.4c3.1-1 7.2 1 8.2 4.1 1 3.1-1 7.2-4.1 8.2l-45.2 14.4c-.9 1-.9 1-2 1zM226 147.9h-58.6c-4.1 0-7.2-3.1-7.2-7.2s3.1-7.2 7.2-7.2H226c4.1 0 7.2 3.1 7.2 7.2 0 4.2-3.1 7.2-7.2 7.2zM173.6 87.3c-1 0-3.1 0-4.1-1-3.1-2.1-3.1-6.2-1-9.2 1-1 13.4-16.4 38-16.4 4.1 0 7.2 3.1 7.2 7.2s-3.1 7.2-7.2 7.2c-17.5 0-26.7 11.3-26.7 11.3-2.1-.1-4.1.9-6.2.9zM117.1 93.5c-2.1 0-4.1-1-5.1-3.1 0-1-10.3-13.4-28.8-13.4-4.1 0-7.2-3.1-7.2-7.2s3.1-7.2 7.2-7.2c25.7 1 39 19.5 40.1 20.5 2.1 3.1 1 7.2-2.1 9.2-1 1.2-2 1.2-4.1 1.2zM145.9 77.1c-4.1 0-7.2-3.1-7.2-7.2V49.3c0-4.1 3.1-7.2 7.2-7.2s7.2 3.1 7.2 7.2v21.6c0 3.1-3.1 6.2-7.2 6.2zM153.1 0l-7.2 10.3h-13.4l8.3 10.2-4.2 12.4 12.4-4.1 10.2 8.2V23.6l10.3-7.2-12.3-4.1zM57.5 33.9l-7.2 10.3H37l8.2 10.3-4.1 12.3 11.3-4.1 11.3 8.2-1-13.4L74 50.3l-12.4-4.1zM239.4 28.8L232.2 39h-12.3l7.2 10.3-4.2 12.3 12.4-4.1 10.2 7.2V52.4l10.3-7.2-12.3-4.1z"/></symbol><symbol viewBox="0 0 30.2 36.6" id="basket" xmlns="http://www.w3.org/2000/svg"><path d="M25.4 36.6H4.6c-1.7 0-3.2-1.4-3.2-3.1L0 12.2C0 10.4 1.4 9 3.2 9H27c1.8 0 3.2 1.4 3.2 3.2v.1l-1.6 21.2c-.1 1.7-1.5 3.1-3.2 3.1zM2.9 12.2l1.4 21.2c0 .2.1.3.3.3h20.7c.2 0 .3-.1.3-.3v-.1l1.6-21.2c0-.1-.1-.3-.3-.3H3.2c-.2.1-.3.2-.3.4z"/><path d="M5.7 14.6c0-.3-.6-8 3.2-12.1C10.4.9 12.5 0 15 0c2.5 0 4.6.9 6.2 2.6 3.8 4.1 3.4 11.7 3.3 12.1l-2.9-.2c0-.1.4-6.7-2.6-9.9C18 3.5 16.6 3 15 3c-1.7 0-3 .5-4 1.6-2.4 2.6-2.6 8-2.4 9.9l-2.9.1z"/><path d="M7.2 17.8c-1.3 0-2.3-1.1-2.3-2.3 0-1.3 1.1-2.3 2.3-2.3s2.3 1.1 2.3 2.3c0 1.2-1.1 2.3-2.3 2.3zm0-2.9c-.3 0-.6.2-.6.6s.2.5.6.5.6-.2.6-.6-.3-.5-.6-.5zM23 17.8c-1.3 0-2.3-1.1-2.3-2.3 0-1.3 1.1-2.3 2.3-2.3s2.3 1.1 2.3 2.3c.1 1.2-1 2.3-2.3 2.3zm0-2.9c-.3 0-.6.2-.6.6s.3.5.6.5.6-.2.6-.6-.3-.5-.6-.5z"/></symbol><symbol viewBox="144.3 245.6 19.4 30" id="chair" xmlns="http://www.w3.org/2000/svg"><path d="M163 264.4h-18c-.4 0-.7-.3-.7-.7v-.3c0-1.6 1.3-2.9 2.9-2.9H161c1.5 0 2.7 1.2 2.7 2.7v.6c0 .3-.3.6-.7.6zm-17.3-1.4h16.6c-.1-.7-.6-1.2-1.3-1.2h-13.8c-.7 0-1.3.5-1.5 1.2z"/><path d="M149.4 261.5c-.3 0-.6-.2-.7-.6l-1.9-10.4v-.1c0-3.2 1.9-4.7 3.8-4.7h6.7c2.1 0 3.8 1.7 3.8 3.8v.1l-1.9 11.4c-.1.4-.4.6-.8.6-.4-.1-.6-.4-.6-.8l1.8-11.3c0-1.3-1.1-2.3-2.4-2.3h-6.7c-1.5 0-2.4 1.2-2.4 3.2l1.8 10.4c.1.4-.2.7-.6.8.2-.1.2-.1.1-.1zm.8 14.1h-2.6c-.4 0-.7-.3-.7-.7v-11.2c0-.4.3-.7.7-.7h2.6c.4 0 .7.3.7.7v11.2c0 .4-.3.7-.7.7zm-1.9-1.4h1.2v-9.8h-1.2v9.8zm12.1 1.4h-2.6c-.4 0-.7-.3-.7-.7v-11.2c0-.4.3-.7.7-.7s.7.3.7.7v10.5h1.2v-10.5c0-.4.3-.7.7-.7s.7.3.7.7v11.2c0 .4-.3.7-.7.7z"/></symbol><symbol viewBox="0 0 492 492" id="close" xmlns="http://www.w3.org/2000/svg"><path d="M300.188 246L484.14 62.04c5.06-5.064 7.852-11.82 7.86-19.024 0-7.208-2.792-13.972-7.86-19.028L468.02 7.872C462.952 2.796 456.196.016 448.984.016c-7.2 0-13.956 2.78-19.024 7.856L246.008 191.82 62.048 7.872C56.988 2.796 50.228.016 43.02.016c-7.2 0-13.96 2.78-19.02 7.856L7.872 23.988c-10.496 10.496-10.496 27.568 0 38.052L191.828 246 7.872 429.952C2.808 435.024.02 441.78.02 448.984c0 7.204 2.788 13.96 7.852 19.028l16.124 16.116c5.06 5.072 11.824 7.856 19.02 7.856 7.208 0 13.968-2.784 19.028-7.856l183.96-183.952 183.952 183.952c5.068 5.072 11.824 7.856 19.024 7.856h.008c7.204 0 13.96-2.784 19.028-7.856l16.12-16.116c5.06-5.064 7.852-11.824 7.852-19.028 0-7.204-2.792-13.96-7.852-19.028L300.188 246z"/></symbol><symbol viewBox="183.3 245.7 299.2 236.1" id="folding-furniture" xmlns="http://www.w3.org/2000/svg"><path d="M367.4 305H191.5c-4.1 0-8.3-3.1-8.3-8.3s3.1-8.3 8.3-8.3h175.9c4.1 0 8.3 3.1 8.3 8.3s-4.2 8.3-8.3 8.3z"/><path d="M337.4 481.8c-4.1 0-8.3-3.1-8.3-8.3v-29L211.2 306c-3.1-3.1-2.1-8.3 1-11.4 3.1-3.1 8.3-2.1 11.4 1l120 140.7c1 1 2.1 3.1 2.1 5.2v32.1c0 5.1-4.2 8.2-8.3 8.2z"/><path d="M217.4 481.8c-4.1 0-8.3-3.1-8.3-8.3v-32.1c0-2.1 1-4.1 2.1-5.2l120-140.7c3.1-3.1 7.2-3.1 11.4-1 3.1 3.1 4.1 7.2 1 11.4L225.7 444.6v29c0 5.1-4.2 8.2-8.3 8.2zM359.1 481.8c-2.1 0-4.1-1-5.2-2.1-3.1-3.1-3.1-8.3-1-11.4l75.5-83.8c3.1-3.1 8.3-3.1 11.4-1 3.1 3.1 3.1 8.3 1 11.4l-75.5 83.8c-2 2.1-4.1 3.1-6.2 3.1z"/><path d="M434.6 481.8c-2.1 0-4.1-1-6.2-2.1L352.9 396c-2.1-2.1-2.1-5.2-1-8.3 1-3.1 4.1-4.1 7.2-4.1h69.3l39.3-132.4c1-4.1 5.2-6.2 9.3-5.2 4.1 1 6.2 5.2 5.2 9.3l-41.4 137.6c-1 3.1-4.1 5.2-7.2 5.2h-57.9l63.1 70.3c3.1 3.1 3.1 8.3-1 11.4 1 2-1.1 2-3.2 2z"/><g><path d="M359.1 398.1h-18.6c-4.1 0-8.3-3.1-8.3-8.3 0-5.2 3.1-8.3 8.3-8.3h18.6c4.1 0 8.3 3.1 8.3 8.3 0 5.2-4.1 8.3-8.3 8.3z"/></g></symbol><symbol viewBox="180.8 210.8 34.7 26" id="gardening" xmlns="http://www.w3.org/2000/svg"><path d="M215 231.1s-.1 0 0 0h-24.3c-.2 0-.5-.2-.5-.4-.1-.2 0-.5.2-.6l2.8-1.9c.1-.1.2-.1.3-.1l19-.1c.2 0 .3 0 .4.1l2.4 1.9c.2.1.3.3.3.5-.1.4-.3.6-.6.6zm-22.5-1.1h20.9l-1.1-.9-18.6.1-1.2.8zm18.7-6.5h-14.6c-.6.5-1.4.9-2.4.9v1.7c0 .3.3.6.6.6h16.4c.3 0 .6-.3.6-.6v-2c0-.4-.2-.6-.6-.6zm-.5 2h-15.3v-.9h15.3v.9z"/><path d="M211.2 221.4H198c-.1.4-.3.8-.6 1.1h13.2v.9h-14c-.6.5-1.4.8-2.3.9.1.2.3.3.5.3h16.4c.3 0 .6-.3.6-.6v-2c0-.3-.2-.6-.6-.6zm-16.7 14.9c-.3 0-.6-.3-.6-.6v-5.2c0-.3.3-.6.6-.6s.6.3.6.6v5.2c0 .4-.2.6-.6.6zm2.6-7.1c-.3 0-.6-.3-.6-.6v-2.2c0-.3.3-.6.6-.6s.6.3.6.6v2.2c0 .4-.3.6-.6.6zm11.7-.1c-.3 0-.6-.3-.6-.6v-2c0-.3.3-.6.6-.6s.6.3.6.6v2c0 .4-.3.6-.6.6zm-11.7 4.7c-.3 0-.6-.3-.6-.6v-2.4c0-.3.3-.6.6-.6s.6.3.6.6v2.4c0 .4-.3.6-.6.6zm11.7-.1c-.3 0-.6-.3-.6-.6V231c0-.3.3-.6.6-.6s.6.3.6.6v2.1c0 .3-.3.6-.6.6zm2.6 2.6c-.3 0-.6-.3-.6-.6v-5.2c0-.3.3-.6.6-.6s.6.3.6.6v5.2c-.1.4-.3.6-.6.6zm-22.1.5c-.3 0-.5-.2-.5-.5v-10.9l-3.2-4.5c-.2-.2-.1-.5.1-.7.2-.2.5-.1.7.1l3.3 4.7v11.2c.1.4-.1.6-.4.6z"/><path d="M188.9 224.5c-.1 0-.2 0-.3-.1-.2-.2-.3-.5-.1-.7l4.4-5.5c.2-.2.5-.3.7-.1.2.2.3.5.1.7l-4.4 5.5c-.1.1-.3.2-.4.2z"/><path d="M187.2 226.7c-3.5 0-6.3-2.8-6.3-6.2 0-2.4 1.4-4.5 3.5-5.6v-.2c0-2.2 1.8-4 4-4 2 0 3.6 1.4 3.9 3.3.3-.1.5-.1.8-.1 2.5 0 4.6 2.1 4.6 4.6s-2.1 4.6-4.6 4.6h-.5c-.3 0-.5-.3-.4-.6s.3-.5.6-.4h.4c2 0 3.6-1.6 3.6-3.6S195 215 193 215c-.3 0-.7.1-1.1.2l-.7.2v-.7c0-1.6-1.3-3-3-3-1.6 0-3 1.3-3 3v.3l.1.4-.3.2c-2 .8-3.2 2.7-3.2 4.8 0 2.9 2.4 5.2 5.3 5.2.3 0 .5.2.5.5s-.2.6-.4.6z"/><path d="M191.7 221c-.1 0-.3-.1-.4-.2l-2.4-3.1c-.2-.2-.1-.5.1-.7.2-.2.5-.1.7.1l2.4 3.1c.2.2.1.5-.1.7-.1 0-.2.1-.3.1z"/></symbol><symbol viewBox="97 117.1 101.3 56.6" id="logo" xmlns="http://www.w3.org/2000/svg"><path d="M129.1 168.8l-1.2 4.8h1l2.6-4c-.4-.1-.8-.3-1.1-.5l-1.3-.3zm22.1.4c-.4.2-.8.3-1.1.5l2.6 4h1l-1.2-4.8-1.3.3zM99.6 129.8h18l-7.4 7.5v10.4h6.7c4 0 6 1.2 6 3.5 0 1.3-.6 2.2-1.8 2.9-1.2.7-2.8 1-4.7 1-2.2 0-4.5-.3-6.9-.9-2.4-.6-4.6-1.5-6.6-2.7L97.1 164c2.6 1.5 5.7 2.6 9.2 3.4 3.5.8 7 1.2 10.6 1.2 4.4 0 8.1-.6 11.3-1.8-3.8-2.7-6.3-7.1-6.3-12h8c.5 0 1 .5 1 1v2c0 2.4 1.8 4.5 4.1 4.9.3-.3.7-.6 1-1-2.2 0-3.9-1.8-3.9-3.9v-2c0-1.1-.9-2.1-2-2.1H127c.2-.5.4-.9.4-1.4.1-4.3-.3-9.5 3.4-11.9.8-.5 1.7-.8 2.8-1-1.6-1-3.5-1.8-5.7-2.3l9.3-9.5v-10.4H99.7l-.1 12.6zM177.2 139.2l20.1-22.1h-18.5l-16.5 18.3v-18.3h-16.7v22c2.1.1 3.9.5 5.2 1.3 3.7 2.5 3.3 7.6 3.4 11.9 0 .5.2.9.4 1.4h-2.9c-1.1 0-2.1.9-2.1 2.1v2c0 2.2-1.8 3.9-3.9 3.9h-.1v1h.1c2.8 0 5-2.2 5-5v-2c0-.6.5-1 1-1h8c-.1 5.4-3 10.1-7.3 12.7h9.9V155l3.8-4.2 12.6 16.7h19.6l-21.1-28.3zM152.7 173.6h-23.8m25.6 0h-.8m-25.8 0H123"/></symbol><symbol viewBox="0 0 30.1 24.3" id="mail" xmlns="http://www.w3.org/2000/svg"><path d="M25.3 0H4.9C2.2 0 0 2.2 0 4.9v14.5c0 2.7 2.2 4.9 4.9 4.9h20.3c2.7 0 4.9-2.2 4.9-4.9V4.9C30.2 2.2 28 0 25.3 0zM28 19.4c0 1.5-1.2 2.7-2.7 2.7H4.9c-1.5 0-2.7-1.2-2.7-2.7V4.9c0-1.5 1.2-2.7 2.7-2.7h20.3c1.5 0 2.7 1.2 2.7 2.7v14.5z"/><path d="M25.1 5.3l-9.7 7.9L5 5.3c-.5-.3-1.2-.3-1.5.2-.4.5-.3 1.2.2 1.6l11 8.4c.2.2.4.2.7.2.2 0 .5-.1.7-.2l10.4-8.4c.4-.4.5-1.1.1-1.6s-1.1-.5-1.5-.2z"/></symbol><symbol viewBox="185.1 213.6 27.9 25.2" id="outdoor-furniture" xmlns="http://www.w3.org/2000/svg"><path d="M185.7 219.5l11.4-5.2 11.6 5.2z"/><path d="M208.7 220.1h-23c-.3 0-.6-.2-.6-.5s.1-.6.4-.7l11.4-5.2c.2-.1.4-.1.5 0l11.6 5.2c.3.1.4.4.4.7s-.4.5-.7.5zm-20-1.3h17l-8.6-3.9-8.4 3.9z"/><path d="M199.5 219.8l-2.4-4.2-2.3 4.2-1.1-.6 2.9-5.2c.1-.2.3-.3.6-.3.2 0 .4.1.6.3l3 5.2-1.3.6zm-2.9 0h1.3v15.7h-1.3z"/><path d="M202.5 231.1h-10.6c-.4 0-.7-.3-.7-.7s.3-.7.7-.7h10.6c.4 0 .7.3.7.7s-.4.7-.7.7zM200.1 238.8c-.4 0-.7-.3-.7-.7 0-1.2-1-2.2-2.2-2.2s-2.2 1-2.2 2.2c0 .4-.3.7-.7.7s-.7-.3-.7-.7c0-1.9 1.6-3.5 3.5-3.5s3.5 1.6 3.5 3.5c.1.4-.2.7-.5.7zM212.3 239c-.4 0-.7-.3-.7-.7v-10.2c0-.4.3-.7.7-.7s.7.3.7.7v10.2c-.1.4-.4.7-.7.7z"/><path d="M204.8 238.8c-.4 0-.7-.3-.7-.7V233c0-.4.3-.7.7-.7h7c.4 0 .7.3.7.7s-.3.7-.7.7h-6.3v4.5c-.1.3-.4.6-.7.6z"/><path d="M204.8 233.6h-1c-.4 0-.7-.3-.7-.7s.3-.7.7-.7h.4v-.6c0-1.5 1.2-2.8 2.8-2.8h4.9c.4 0 .7.3.7.7s-.3.7-.7.7H207c-.8 0-1.5.7-1.5 1.5v1.2c-.1.4-.4.7-.7.7z"/><path d="M210.3 233c-.4 0-.7-.3-.7-.7v-3.7c0-1.8.8-3.5 2.2-4.6.3-.2.7-.2.9.1.2.3.2.7-.1.9-1.1.9-1.7 2.1-1.7 3.5v3.7c0 .6-.3.8-.6.8z"/></symbol><symbol viewBox="0 0 30.1 37.2" id="phone" xmlns="http://www.w3.org/2000/svg"><path d="M22.6 37.1c-.5-.1-.9-.3-1.4-.5-.4-.2-10-6.1-14.8-12.9C1.4 16.8.1 5.4 0 4.9-.2 3.1.9 1.4 2.6.8c.2-.1.3-.2.5-.2L8.5 0h.9c1.4.2 2.4 1.3 2.7 2.7l1.2 7.3c.3 1.7-.7 3.4-2.4 4l-.7.2c.8 2 1.6 3.7 2.5 5 .9 1.3 2.3 2.8 3.9 4.3l1.5-1.5c.8-.8 2-1.2 3.1-1 .5.1 1 .3 1.5.6l6.1 4.3c1.4 1 1.8 2.9.9 4.4-.2.4-2.9 4.8-3.1 5.1-.9 1.3-2.5 2-4 1.7zM3.7 2.9c0 .1-.1.1-.2.1-.7.2-1.2.9-1.1 1.6.1.5 1.3 11.2 5.9 17.7 4.5 6.4 13.7 12 14.1 12.3.2.1.3.2.5.2.6.1 1.2-.2 1.5-.7.1-.2 2.1-3.4 3.1-5.1.3-.4.2-.9-.2-1.2l-6.1-4.3c-.1-.1-.3-.2-.5-.2-.4-.1-.8.1-1.1.3l-2.3 2.3c-.4.5-1.1.5-1.6.1-2.2-1.9-3.9-3.7-5.1-5.4-1.2-1.7-2.3-4-3.2-6.7-.1-.3-.1-.6.1-.9.1-.3.4-.5.7-.6l1.9-.6c.6-.2.9-.7.8-1.3L9.7 3c0-.3-.3-.6-.7-.7h-.3l-5 .6z"/></symbol><symbol viewBox="164.5 281.2 306 175.4" id="racks" xmlns="http://www.w3.org/2000/svg"><path d="M278 389.5H174.8c-3.4 0-6.9-2.6-6.9-6.9v-34.4c0-3.4 2.6-6.9 6.9-6.9H278c3.4 0 6.9 2.6 6.9 6.9v34.4c-.1 3.4-3.5 6.9-6.9 6.9zm-96.3-12.9H272v-21.5h-90.3v21.5z"/><path d="M278 424.7H174.8c-3.4 0-6.9-2.6-6.9-6.9v-36.1c0-3.4 2.6-6.9 6.9-6.9H278c3.4 0 6.9 2.6 6.9 6.9v36.1c-.1 4.3-3.5 6.9-6.9 6.9zm-96.3-12.9H272v-23.2h-90.3v23.2z"/><path d="M278 456.5H174.8c-3.4 0-6.9-2.6-6.9-6.9v-30.9c0-3.4 2.6-6.9 6.9-6.9H278c3.4 0 6.9 2.6 6.9 6.9v30.9c-.1 3.5-3.5 6.9-6.9 6.9zm-96.3-12.9H272v-18.1h-90.3v18.1zm281.9-126.3H171.4c-3.4 0-6.9-2.6-6.9-6.9V288c0-3.4 2.6-6.9 6.9-6.9h292.3c3.4 0 6.9 2.6 6.9 6.9v22.3c-.1 3.5-3.5 7-7 7zm-285.3-12.9h279.4v-9.5H178.3v9.5zm266.4 67.9H388c-3.4 0-6.9-2.6-6.9-6.9v-17.2c0-3.4 2.6-6.9 6.9-6.9h56.7c3.4 0 6.9 2.6 6.9 6.9v17.2c-.9 3.5-3.4 6.9-6.9 6.9zm-49.8-12.9h43.8v-4.3h-43.8v4.3z"/><path d="M416.4 346.5c-3.4 0-6.9-2.6-6.9-6.9v-29.2c0-3.4 2.6-6.9 6.9-6.9s6.9 2.6 6.9 6.9v29.2c-.9 3.5-3.5 6.9-6.9 6.9zm0 110c-3.4 0-6.9-2.6-6.9-6.9V368c0-3.4 2.6-6.9 6.9-6.9s6.9 2.6 6.9 6.9v81.7c-.9 3.4-3.5 6.8-6.9 6.8z"/><path d="M455 456.5h-82.5c-3.4 0-6.9-2.6-6.9-6.9 0-4.3 2.6-6.9 6.9-6.9H455c3.4 0 6.9 2.6 6.9 6.9 0 4.4-3.4 6.9-6.9 6.9zm-228.6-110c-3.4 0-6.9-2.6-6.9-6.9v-29.2c0-3.4 2.6-6.9 6.9-6.9 4.3 0 6.9 2.6 6.9 6.9v29.2c0 3.5-3.5 6.9-6.9 6.9z"/></symbol><symbol viewBox="0 0 17.6 19.3" id="search" xmlns="http://www.w3.org/2000/svg"><path d="M17.2 16.4l-4-4.1c-.2-.2-.4-.3-.7-.4 1-1.2 1.7-2.8 1.7-4.5 0-3.9-3.1-7-7-7s-7 3.1-7 7 3.1 7 7 7c1.3 0 2.5-.3 3.5-1 0 .3.1.7.4.9l4 4.1c.6.6 1.5.6 2.1 0 .6-.5.6-1.4 0-2zM7.1 12c-2.6 0-4.6-2.1-4.6-4.6s2.1-4.6 4.6-4.6 4.6 2.1 4.6 4.6-2 4.6-4.6 4.6z"/></symbol><symbol viewBox="129.2 163.3 32.6 19.6" id="soft-furniture" xmlns="http://www.w3.org/2000/svg"><path d="M159.3 170.2h-1.8c-1.4 0-2.5 1.1-2.5 2.5v2.7c0 .5-.4.9-.9.9h-17c-.5 0-.9-.4-.9-.9v-2.7c0-1.4-1.1-2.5-2.6-2.5h-1.8c-1.4 0-2.5 1.1-2.5 2.5v5c0 2.3 1.9 4.1 4.1 4.1h24.3c2.3 0 4.1-1.9 4.1-4.1v-5c0-1.4-1.1-2.5-2.5-2.5zm-28.5 2.5c0-.5.4-.9.9-.9h1.8c.5 0 1 .4 1 .9v2.7c0 1.4 1.1 2.5 2.5 2.5h17c1.4 0 2.5-1.1 2.5-2.5v-2.7c0-.5.4-.9.9-.9h1.8c.5 0 .9.4.9.9v5c0 1.4-1.2 2.6-2.6 2.6h-24.1c-1.4 0-2.6-1.2-2.6-2.6v-5z"/><path d="M158.4 171.1c-.3 0-.5-.2-.5-.5v-4.3c0-1-.8-1.8-1.8-1.8h-21.2c-1 0-1.8.8-1.8 1.8v4.3c0 .3-.2.5-.5.5s-.5-.2-.5-.5v-4.3c0-1.5 1.2-2.8 2.8-2.8h21.2c1.5 0 2.8 1.2 2.8 2.8v4.3c0 .3-.2.5-.5.5z"/><path d="M158.4 171.3c-.4 0-.8-.3-.8-.8v-4.3c0-.8-.7-1.5-1.5-1.5h-21.2c-.8 0-1.5.7-1.5 1.5v4.3c0 .4-.3.8-.8.8s-.8-.3-.8-.8v-4.3c0-1.7 1.4-3 3-3H156c1.7 0 3 1.4 3 3v4.3c.1.5-.2.8-.6.8zm-23.5-7h21.2c1.1 0 2 .9 2 2v4.3c0 .1.1.3.3.3s.3-.1.3-.3v-4.3c0-1.4-1.1-2.5-2.5-2.5H135c-1.4 0-2.5 1.1-2.5 2.5v4.3c0 .1.1.3.3.3s.3-.1.3-.3v-4.3c-.3-1.1.6-2 1.8-2zm1 18.6H133c-.6 0-1.1-.5-1.1-1.1s.5-1.1 1.1-1.1h2.9c.6 0 1.1.5 1.1 1.1s-.5 1.1-1.1 1.1zm20.6 0h-2.9c-.6 0-1.1-.5-1.1-1.1s.5-1.1 1.1-1.1h2.9c.6 0 1.1.5 1.1 1.1s-.5 1.1-1.1 1.1zM155.5 174H135h20.5zm-20.5-.8h21v1.7h-21z"/></symbol><symbol viewBox="170.2 248 32 20.3" id="table" xmlns="http://www.w3.org/2000/svg"><path d="M201.4 252.5h-30.5c-.4 0-.8-.3-.8-.8v-3c0-.4.3-.8.8-.8h30.5c.4 0 .8.3.8.8v3c0 .4-.4.8-.8.8zm-29.7-1.5h29v-1.5h-29v1.5z"/><path d="M199 268.3c-.4 0-.7-.3-.8-.7l-.1-15.9c0-.4.3-.8.7-.8.4 0 .7.3.8.7l.1 15.7v.1c0 .6-.3.9-.7.9zm-26.9 0c-.4 0-.8-.3-.8-.8v-15.9c0-.4.3-.8.8-.8s.8.3.8.8v15.9c0 .5-.3.8-.8.8z"/><path d="M198.5 257.3h-26.3c-.4 0-.8-.3-.8-.8s.3-.8.8-.8h26.3c.4 0 .8.3.8.8s-.4.8-.8.8zm-21.1-3.9h1.3v1.5h-1.3zm-.1 4.9h1.3v1.5h-1.3z"/><path d="M183.1 262.2h-11c-.4 0-.8-.3-.8-.8s.3-.8.8-.8h10.2v-9c0-.4.3-.8.8-.8s.8.3.8.8v9.8c0 .5-.4.8-.8.8z"/></symbol><symbol viewBox="179 207.9 34.8 16" id="tabletop" xmlns="http://www.w3.org/2000/svg"><path d="M213 219.1h-33.1c-.3 0-.6-.2-.7-.4-.1-.3-.1-.6.1-.8l7.9-9.7c.1-.2.4-.3.6-.3h17.3c.2 0 .4.1.6.3l7.9 9.7c.2.2.2.5.1.8-.2.3-.4.4-.7.4zm-31.6-1.5h30l-6.7-8.2h-16.6l-6.7 8.2z"/><path d="M213 223.9h-33.3c-.4 0-.8-.3-.8-.8v-4.8c0-.4.3-.8.8-.8H213c.4 0 .8.3.8.8v4.8c-.1.5-.4.8-.8.8zm-32.5-1.5h31.8v-3.3h-31.8v3.3z"/></symbol><symbol viewBox="183.6 214.2 24.8 23.2" id="underframes" xmlns="http://www.w3.org/2000/svg"><path d="M207.7 237.3h-23.3c-.3 0-.6-.2-.7-.4-.1-.3-.1-.6.1-.8l5.6-6.8c.1-.2.4-.3.6-.3h12.2c.2 0 .4.1.6.3l5.6 6.8c.2.2.2.5.1.8-.3.3-.5.4-.8.4zm-21.7-1.5h20.1l-4.3-5.3h-11.4l-4.4 5.3z"/><path d="M195.7 218.5h.8v14.6h-.8z"/><path d="M195.2 218h1.8v15.6h-1.8z"/><path d="M205.6 222.1c-.1 0-.2 0-.3-.1l-16.5-6.5c-.4-.2-.6-.6-.4-1 .2-.4.6-.6 1-.4l16.5 6.5c.4.2.6.6.4 1-.1.4-.4.5-.7.5z"/><path d="M186.8 222.1c-.3 0-.6-.2-.7-.5-.2-.4 0-.8.4-1l16.5-6.5c.4-.1.8 0 1 .4.2.4 0 .8-.4 1l-16.5 6.5c-.1.1-.2.1-.3.1z"/></symbol></svg>