<?xml version="1.0" encoding="utf-8"?>
<!-- Generator: Adobe Illustrator 18.1.0, SVG Export Plug-In . SVG Version: 6.00 Build 0)  -->
<svg version="1.1" id="Слой_1" xmlns="http://www.w3.org/2000/svg" xmlns:xlink="http://www.w3.org/1999/xlink" x="0px" y="0px"
	 viewBox="158.6 178.7 48.4 87.9" enable-background="new 158.6 178.7 48.4 87.9" xml:space="preserve">
<g>
	<g>
		<path fill="#020202" d="M163.8,252.1c-0.8-0.1-1.5-0.8-1.4-1.6l2.1-22.7c0.1-0.8,0.8-1.5,1.6-1.4c0.8,0.1,1.5,0.8,1.4,1.6
			l-2.1,22.7C165.3,251.5,164.6,252.2,163.8,252.1z"/>
	</g>
</g>
<g>
	<g>
		<path fill="#020202" d="M200.2,252.1c0.8-0.1,1.5-0.8,1.4-1.6l-2.1-22.7c-0.1-0.8-0.8-1.5-1.6-1.4c-0.8,0.1-1.5,0.8-1.4,1.6
			l2.1,22.7C198.7,251.5,199.4,252.2,200.2,252.1z"/>
	</g>
</g>
<g>
	<g>
		<path fill="#020202" d="M197.1,224.8h-31.3c-0.8,0-1.5-0.7-1.5-1.5s0.7-1.5,1.5-1.5h31.3c0.8,0,1.5,0.7,1.5,1.5
			S197.9,224.8,197.1,224.8z"/>
	</g>
</g>
<g>
	<path fill="#020202" d="M198.1,213.7h-33.8c-1.9,0-3.4,1.5-3.4,3.4c0,1.9,1.5,3.4,3.4,3.4h33.8c1.9,0,3.4-1.5,3.4-3.4
		C201.5,215.2,200,213.7,198.1,213.7z M198.1,217.7h-33.8c-0.3,0-0.6-0.3-0.6-0.6c0-0.3,0.3-0.6,0.6-0.6h33.8c0.3,0,0.6,0.3,0.6,0.6
		C198.7,217.4,198.4,217.7,198.1,217.7z"/>
</g>
<g>
	<g>
		<rect x="165.7" y="260.7" fill="#020202" width="34.1" height="2"/>
	</g>
	<g>
		<g>
			<polygon fill="#020202" points="167.2,266.6 158.6,261.7 167.2,256.7 			"/>
		</g>
	</g>
	<g>
		<g>
			<polygon fill="#020202" points="198.4,266.6 207,261.7 198.4,256.7 			"/>
		</g>
	</g>
</g>
<g>
	<path fill="#020202" d="M168.8,211.8c-0.7,0-1.4-0.5-1.5-1.3l-4-28.6l1.1-0.4c0.3-0.1,7.6-2.7,17.6-2.7c0,0,0,0,0.1,0
		c9.9,0,16.6,1.9,16.9,1.9l1.2,0.3l-3.5,29.4c-0.1,0.8-0.8,1.4-1.7,1.3c-0.8-0.1-1.4-0.8-1.3-1.7l3.2-26.8
		c-2.3-0.5-7.8-1.5-14.9-1.5c0,0,0,0-0.1,0c-7.2,0-13.1,1.5-15.4,2.2l3.6,26.1c0.1,0.8-0.5,1.6-1.3,1.7
		C168.9,211.7,168.8,211.8,168.8,211.8z"/>
</g>
</svg>
