<?xml version="1.0" encoding="utf-8"?>
<!-- Generator: Adobe Illustrator 18.1.0, SVG Export Plug-In . SVG Version: 6.00 Build 0)  -->
<svg version="1.1" id="Слой_1" xmlns="http://www.w3.org/2000/svg" xmlns:xlink="http://www.w3.org/1999/xlink" x="0px" y="0px"
	 viewBox="0 0 44.3 28.9" enable-background="new 0 0 44.3 28.9" xml:space="preserve">
<g>
	<path fill="#1B1616" d="M38.7,7H27.5c-0.4,0-0.8,0.4-0.8,0.8s0.4,0.8,0.8,0.8h10.3l5,8v6.7h-4c0.3,0.5,0.4,1.1,0.3,1.6h5.3v-8.8
		L38.7,7z"/>
	<path fill="#1B1616" d="M16.2,24.9h15.3c0-0.1-0.1-0.2-0.1-0.3c-0.1-0.5-0.1-0.9,0.1-1.3H16.2c0.2,0.4,0.2,0.9,0.1,1.3
		C16.3,24.8,16.3,24.8,16.2,24.9z"/>
	<path fill="#1B1616" d="M8.8,23.3h-8c-0.4,0-0.8,0.4-0.8,0.8s0.4,0.8,0.8,0.8h8.1C8.7,24.4,8.7,23.8,8.8,23.3z"/>
</g>
<g>
	<path fill="#1B1616" d="M27.5,24.9c-0.4,0-0.8-0.4-0.8-0.8V1.6H9C8,1.6,7.2,2.4,7.2,3.3c0,1,0.8,1.8,1.8,1.8h3.1
		C12.6,5.2,13,5.5,13,6c0,0.4-0.4,0.8-0.8,0.8H9.1c-1.9,0-3.4-1.5-3.4-3.4C5.6,1.5,7.1,0,9,0h19.3v24.1
		C28.3,24.6,27.9,24.9,27.5,24.9z"/>
</g>
<g>
	<path fill="#1B1616" d="M15.8,11.5h-3.9c-1.8,0-3.3-1.5-3.3-3.3c0-1.7,1.4-3.1,3.1-3.1h0.4C12.6,5.2,13,5.5,13,6
		c0,0.4-0.4,0.8-0.8,0.8h-0.4c-0.8,0-1.5,0.7-1.5,1.5c0,0.9,0.7,1.7,1.7,1.7h3.9c0.4,0,0.8,0.4,0.8,0.8S16.3,11.5,15.8,11.5z"/>
</g>
<g>
	<path fill="#1B1616" d="M19,15.9h-4.1c-1.7,0-3.1-1.4-3.1-3.1c0-1.6,1.3-2.9,2.9-2.9h0.5c0.4,0,0.8,0.4,0.8,0.8s-0.4,0.8-0.8,0.8
		h-0.5c-0.7,0-1.3,0.6-1.3,1.3c0,0.8,0.7,1.5,1.5,1.5H19c0.4,0,0.8,0.4,0.8,0.8S19.5,15.9,19,15.9z"/>
</g>
<g>
	<path fill="#1B1616" d="M42.9,17.2h-9.1V8.3c0-0.4,0.4-0.8,0.8-0.8c0.4,0,0.8,0.4,0.8,0.8v7.2h7.5c0.4,0,0.8,0.4,0.8,0.8
		S43.4,17.2,42.9,17.2z"/>
</g>
<g>
	<path fill="#1B1616" d="M35.4,28.9c-2.6,0-4.7-2.1-4.7-4.7s2.1-4.7,4.7-4.7s4.7,2.1,4.7,4.7S38,28.9,35.4,28.9z M35.4,21
		c-1.7,0-3.1,1.4-3.1,3.1c0,1.7,1.4,3.1,3.1,3.1s3.1-1.4,3.1-3.1C38.5,22.4,37.1,21,35.4,21z"/>
</g>
<g>
	<path fill="#1B1616" d="M12.6,28.9c-2.6,0-4.7-2.1-4.7-4.7s2.1-4.7,4.7-4.7s4.7,2.1,4.7,4.7S15.2,28.9,12.6,28.9z M12.6,21
		c-1.7,0-3.1,1.4-3.1,3.1c0,1.7,1.4,3.1,3.1,3.1s3.1-1.4,3.1-3.1C15.8,22.4,14.4,21,12.6,21z"/>
</g>
<g>
	<circle fill="#1B1616" cx="12.6" cy="24.1" r="0.9"/>
</g>
<g>
	<circle fill="#1B1616" cx="35.4" cy="24.1" r="0.8"/>
</g>
</svg>
