<?xml version="1.0" encoding="utf-8"?>
<!-- Generator: Adobe Illustrator 18.1.0, SVG Export Plug-In . SVG Version: 6.00 Build 0)  -->
<svg version="1.1" id="Слой_1" xmlns="http://www.w3.org/2000/svg" xmlns:xlink="http://www.w3.org/1999/xlink" x="0px" y="0px"
	 viewBox="0 0 29 35.8" enable-background="new 0 0 29 35.8" xml:space="preserve">
<g>
	<g>
		<path fill="#1B1616" d="M16.4,18.7l-3.3-4.3c-0.2-0.3-0.1-0.6,0.1-0.8c0.2-0.2,0.6-0.1,0.8,0.1l2.5,3.2l5.4-6.1
			c0.2-0.2,0.6-0.3,0.8-0.1c0.2,0.2,0.3,0.6,0.1,0.8L16.4,18.7z"/>
		<path fill="#1B1616" d="M16.4,19.3l-3.6-4.7c-0.3-0.4-0.2-1,0.2-1.3c0.4-0.3,1-0.2,1.3,0.2l2.2,2.9l5.1-5.7c0.3-0.4,1-0.4,1.3-0.1
			c0.2,0.2,0.3,0.4,0.3,0.6s-0.1,0.5-0.2,0.7L16.4,19.3z M13.6,13.8c0,0-0.1,0-0.1,0c-0.1,0.1-0.1,0.2,0,0.3l3.1,4l6-6.8
			c0,0,0-0.1,0-0.1c0-0.1,0-0.1-0.1-0.1c-0.1-0.1-0.2-0.1-0.3,0l-5.7,6.4l-2.8-3.6C13.7,13.9,13.6,13.8,13.6,13.8z"/>
	</g>
</g>
<path fill="#1B1616" d="M16.5,4.4c-3.2,0-6.1,1.2-8.3,3.1h2.5c1.7-1,3.7-1.6,5.8-1.6c6.1,0,11,4.9,11,11c0,4.8-3.1,8.9-7.4,10.4v1.6
	c5.2-1.6,8.9-6.3,8.9-12C29,10,23.4,4.4,16.5,4.4z"/>
<g>
	<path fill="#1B1616" d="M17.9,4.4h-3.5c-1.2,0-2.2-1-2.2-2.2s1-2.2,2.2-2.2h3.5c1.2,0,2.2,1,2.2,2.2S19.1,4.4,17.9,4.4z M14.4,1.5
		c-0.4,0-0.7,0.3-0.7,0.7c0,0.4,0.3,0.7,0.7,0.7h3.5c0.4,0,0.7-0.3,0.7-0.7c0-0.4-0.3-0.7-0.7-0.7H14.4z"/>
</g>
<g>
	<path fill="#1B1616" d="M25.9,9.7c-0.4,0-0.8-0.1-1.1-0.4l-1-0.8c-0.4-0.3-0.6-0.7-0.6-1.2c0-0.5,0.1-0.9,0.4-1.3l0.1-0.1
		c0.6-0.7,1.7-0.8,2.5-0.2l1,0.8c0.7,0.6,0.8,1.7,0.2,2.5l-0.1,0.1C26.9,9.5,26.4,9.7,25.9,9.7z M25,6.8c0,0-0.1,0-0.2,0.1L24.7,7
		c-0.1,0.1-0.1,0.1-0.1,0.2c0,0,0,0.1,0.1,0.2l1,0.8c0.1,0,0.1,0.1,0.2,0.1c0,0,0.1,0,0.2-0.1L26.2,8c0.1-0.1,0.1-0.1,0.1-0.2
		s0-0.1-0.1-0.2l-1-0.8C25.1,6.8,25,6.8,25,6.8z"/>
</g>
<path fill="#1B1616" d="M17.2,20.1v12c0,1.2-1,2.3-2.3,2.3H3.8c-1.2,0-2.3-1-2.3-2.3V12.8c0-1.2,1-2.3,2.3-2.3H15
	c1.2,0,2.3,1,2.3,2.3v0.8l1.4-1.6c-0.3-1.7-1.9-3-3.7-3H3.8C1.7,9.1,0,10.7,0,12.8v19.3c0,2.1,1.7,3.8,3.8,3.8H15
	c2.1,0,3.8-1.7,3.8-3.8V18.6L17.2,20.1z"/>
<g>
	<path fill="#1B1616" d="M10.6,19.3H4.1c-0.4,0-0.8-0.3-0.8-0.8s0.3-0.8,0.8-0.8h6.4c0.4,0,0.8,0.3,0.8,0.8S11,19.3,10.6,19.3z"/>
</g>
<g>
	<path fill="#1B1616" d="M13,23.5H4.1c-0.4,0-0.8-0.3-0.8-0.8S3.7,22,4.1,22H13c0.4,0,0.8,0.3,0.8,0.8S13.4,23.5,13,23.5z"/>
</g>
<g>
	<path fill="#1B1616" d="M13,28.1H4.1c-0.4,0-0.8-0.3-0.8-0.8s0.3-0.8,0.8-0.8H13c0.4,0,0.8,0.3,0.8,0.8S13.4,28.1,13,28.1z"/>
</g>
</svg>
