<?xml version="1.0" encoding="utf-8"?>
<!-- Generator: Adobe Illustrator 18.1.0, SVG Export Plug-In . SVG Version: 6.00 Build 0)  -->
<svg version="1.1" id="Слой_1" xmlns="http://www.w3.org/2000/svg" xmlns:xlink="http://www.w3.org/1999/xlink" x="0px" y="0px"
	 viewBox="160.9 178.7 67.4 72.7" enable-background="new 160.9 178.7 67.4 72.7" xml:space="preserve">
<g>
	<path fill="#020202" stroke="#020202" stroke-width="0.5" stroke-miterlimit="10" d="M202.4,251.1c-0.5,0-0.9-0.3-1.1-0.8
		c-2.3-5.2-5-34.9-5-34.9s5.7-35.3,6-35.8c0.4-0.7,1.2-0.9,1.8-0.4c0.6,0.4,0.8,1.3,0.4,2c-0.1,0.1-5.6,34.4-5.6,34.4
		s2.8,29.1,4.8,33.4c0.3,0.7,0.1,1.6-0.6,1.9C202.8,251.1,202.6,251.1,202.4,251.1z"/>
</g>
<g>
	<path fill="#020202" d="M163.8,251.1c-0.8-0.1-1.5-0.8-1.4-1.6l2.1-22.7c0.1-0.8,0.8-1.5,1.6-1.4s1.5,0.8,1.4,1.6l-2.1,22.7
		C165.3,250.5,164.6,251.2,163.8,251.1z"/>
</g>
<g>
	<path fill="#020202" d="M192.5,223.8h-26.8c-0.8,0-1.5-0.7-1.5-1.5s0.7-1.5,1.5-1.5h26.8c0.8,0,1.5,0.7,1.5,1.5
		S193.4,223.8,192.5,223.8z"/>
</g>
<path fill="#020202" d="M190.5,212.7h-26.3c-1.9,0-3.4,1.5-3.4,3.4c0,1.9,1.5,3.4,3.4,3.4h26.3c1.9,0,3.4-1.5,3.4-3.4
	C193.9,214.2,192.4,212.7,190.5,212.7z M190.5,216.7h-26.3c-0.3,0-0.6-0.3-0.6-0.6c0-0.3,0.3-0.6,0.6-0.6h26.3
	c0.3,0,0.6,0.3,0.6,0.6C191.1,216.4,190.9,216.7,190.5,216.7z"/>
<g>
	<g>
		<line fill="none" stroke="#020202" stroke-width="2" stroke-miterlimit="10" x1="223.3" y1="186.1" x2="223.3" y2="244"/>
		<g>
			<polygon fill="#020202" points="218.3,187.6 223.3,178.9 228.3,187.6 			"/>
		</g>
		<g>
			<polygon fill="#020202" points="218.3,242.5 223.3,251.1 228.3,242.5 			"/>
		</g>
	</g>
</g>
</svg>
